<svg width="28" height="28" viewBox="0 0 28 28" fill="none" xmlns="http://www.w3.org/2000/svg">
<circle cx="14" cy="14" r="13" fill="#34D0BE" stroke="black" stroke-opacity="0.05"/>
<path d="M10.7926 11.3636V12.7557H6.27841V11.3636H10.7926ZM7.40696 19V10.6428C7.40696 10.129 7.51302 9.70147 7.72514 9.36008C7.94058 9.0187 8.22893 8.76349 8.5902 8.59446C8.95147 8.42543 9.35251 8.34091 9.79332 8.34091C10.1049 8.34091 10.3816 8.36577 10.6236 8.41548C10.8655 8.4652 11.0445 8.50994 11.1605 8.54972L10.8026 9.94176C10.7263 9.91856 10.6302 9.89536 10.5142 9.87216C10.3982 9.84564 10.2689 9.83239 10.1264 9.83239C9.79167 9.83239 9.55469 9.91359 9.41548 10.076C9.27959 10.2351 9.21165 10.4638 9.21165 10.7621V19H7.40696ZM12.2021 19V11.3636H13.9471V12.6364H14.0266C14.1658 12.1955 14.4045 11.8558 14.7425 11.6172C15.0839 11.3752 15.4734 11.2543 15.9109 11.2543C16.0103 11.2543 16.1213 11.2592 16.244 11.2692C16.3699 11.2758 16.4743 11.2874 16.5572 11.304V12.9595C16.4809 12.933 16.36 12.9098 16.1942 12.8899C16.0318 12.8667 15.8744 12.8551 15.7219 12.8551C15.3938 12.8551 15.0988 12.9264 14.837 13.0689C14.5785 13.2081 14.3746 13.402 14.2255 13.6506C14.0763 13.8991 14.0018 14.1858 14.0018 14.5107V19H12.2021ZM17.7528 19V11.3636H19.4979V12.6364H19.5774C19.7166 12.1955 19.9553 11.8558 20.2933 11.6172C20.6347 11.3752 21.0241 11.2543 21.4616 11.2543C21.5611 11.2543 21.6721 11.2592 21.7947 11.2692C21.9207 11.2758 22.0251 11.2874 22.108 11.304V12.9595C22.0317 12.933 21.9107 12.9098 21.745 12.8899C21.5826 12.8667 21.4252 12.8551 21.2727 12.8551C20.9446 12.8551 20.6496 12.9264 20.3878 13.0689C20.1293 13.2081 19.9254 13.402 19.7763 13.6506C19.6271 13.8991 19.5526 14.1858 19.5526 14.5107V19H17.7528Z" fill="white"/>
</svg>
